<svg preserveAspectRatio="none" overflow="visible" style="display: block;" width="9" height="8" viewBox="0 0 9 8" fill="none" xmlns="http://www.w3.org/2000/svg">
<path id="vector" d="M1.5 7V7.5C1.5 7.64167 1.45208 7.76042 1.35625 7.85625C1.26042 7.95208 1.14167 8 1 8H0.5C0.358333 8 0.239583 7.95208 0.14375 7.85625C0.0479167 7.76042 0 7.64167 0 7.5V3.5L1.05 0.5C1.1 0.35 1.18958 0.229167 1.31875 0.1375C1.44792 0.0458333 1.59167 0 1.75 0H7.25C7.40833 0 7.55208 0.0458333 7.68125 0.1375C7.81042 0.229167 7.9 0.35 7.95 0.5L9 3.5V7.5C9 7.64167 8.95208 7.76042 8.85625 7.85625C8.76042 7.95208 8.64167 8 8.5 8H8C7.85833 8 7.73958 7.95208 7.64375 7.85625C7.54792 7.76042 7.5 7.64167 7.5 7.5V7H1.5ZM1.4 2.5H7.6L7.075 1H1.925L1.4 2.5ZM2.25 5.5C2.45833 5.5 2.63542 5.42708 2.78125 5.28125C2.92708 5.13542 3 4.95833 3 4.75C3 4.54167 2.92708 4.36458 2.78125 4.21875C2.63542 4.07292 2.45833 4 2.25 4C2.04167 4 1.86458 4.07292 1.71875 4.21875C1.57292 4.36458 1.5 4.54167 1.5 4.75C1.5 4.95833 1.57292 5.13542 1.71875 5.28125C1.86458 5.42708 2.04167 5.5 2.25 5.5ZM6.75 5.5C6.95833 5.5 7.13542 5.42708 7.28125 5.28125C7.42708 5.13542 7.5 4.95833 7.5 4.75C7.5 4.54167 7.42708 4.36458 7.28125 4.21875C7.13542 4.07292 6.95833 4 6.75 4C6.54167 4 6.36458 4.07292 6.21875 4.21875C6.07292 4.36458 6 4.54167 6 4.75C6 4.95833 6.07292 5.13542 6.21875 5.28125C6.36458 5.42708 6.54167 5.5 6.75 5.5Z" fill="#5E6167"/>
</svg>
